Coordinates
version=1
nRows=20
nColumns=38
inDegrees=no

Units are S.I. units (second, meters, Newtons, ...)
If the header above contains a line with 'inDegrees', this indicates whether rotational values are in degrees (yes) or radians (no).

endheader
time	pelvis_tilt	pelvis_list	pelvis_rotation	pelvis_tx	pelvis_ty	pelvis_tz	hip_flexion_r	hip_adduction_r	hip_rotation_r	knee_angle_r	ankle_angle_r	subtalar_angle_r	mtp_angle_r	hip_flexion_l	hip_adduction_l	hip_rotation_l	knee_angle_l	ankle_angle_l	subtalar_angle_l	mtp_angle_l	lumbar_extension	lumbar_bending	lumbar_rotation	arm_flex_r	arm_add_r	arm_rot_r	elbow_flex_r	pro_sup_r	wrist_flex_r	wrist_dev_r	arm_flex_l	arm_add_l	arm_rot_l	elbow_flex_l	pro_sup_l	wrist_flex_l	wrist_dev_l
22.22	-0.164558	1.24403	-1.34925	0.741359	-0.496627	0.96865	-0.349912	0.0251247	-0.0630361	0.0472964	-0.535334	0	0	-0.272578	-0.112757	-0.110642	0.190442	-0.469119	0	0	-1.0493	0.256067	0.109854	-0.527779	-0.382639	-0.233447	1.85081	1.5708	0	0	-0.254463	-0.2026	-0.104459	1.35879	1.5708	0	0
22.23	-0.162317	1.24369	-1.35257	0.741322	-0.496896	0.968683	-0.35043	0.0243116	-0.0635291	0.0472767	-0.535924	0	0	-0.273894	-0.111412	-0.106626	0.189459	-0.468987	0	0	-1.0511	0.255657	0.11165	-0.527046	-0.384584	-0.235169	1.86143	1.5708	0	0	-0.250762	-0.20431	-0.10134	1.35936	1.5708	0	0
22.24	-0.159815	1.24259	-1.35657	0.741267	-0.497169	0.968776	-0.351809	0.0234451	-0.0639533	0.0470966	-0.53632	0	0	-0.278591	-0.109703	-0.101717	0.183006	-0.470017	0	0	-1.05373	0.254991	0.114956	-0.527717	-0.38634	-0.238835	1.87175	1.5708	0	0	-0.246137	-0.206658	-0.0971041	1.36073	1.5708	0	0
22.25	-0.157185	1.24114	-1.36067	0.741238	-0.497397	0.968911	-0.353453	0.0224866	-0.0648506	0.0471191	-0.536904	0	0	-0.28116	-0.108037	-0.0986225	0.183801	-0.469222	0	0	-1.05679	0.25444	0.118888	-0.528657	-0.387864	-0.244038	1.8809	1.5708	0	0	-0.241219	-0.209906	-0.0920107	1.36368	1.5708	0	0
22.26	-0.15626	1.24013	-1.36306	0.741214	-0.49762	0.968987	-0.354366	0.0219814	-0.0659425	0.0475904	-0.53732	0	0	-0.283306	-0.10675	-0.0963411	0.182914	-0.468046	0	0	-1.05941	0.254169	0.122931	-0.529118	-0.389671	-0.249384	1.88834	1.5708	0	0	-0.236334	-0.21287	-0.08671	1.36601	1.5708	0	0
22.27	-0.156032	1.23969	-1.36469	0.741189	-0.49783	0.969031	-0.354614	0.0215952	-0.0666246	0.048046	-0.537648	0	0	-0.284905	-0.105862	-0.0946278	0.181658	-0.467429	0	0	-1.06151	0.253998	0.126518	-0.528665	-0.391597	-0.254092	1.89486	1.5708	0	0	-0.231693	-0.214626	-0.0820821	1.36782	1.5708	0	0
22.28	-0.15664	1.24003	-1.36518	0.741195	-0.498011	0.969014	-0.353936	0.0214121	-0.0666924	0.0485253	-0.53809	0	0	-0.286978	-0.105309	-0.0920199	0.175939	-0.469247	0	0	-1.06269	0.254189	0.129547	-0.527187	-0.393417	-0.258163	1.90128	1.5708	0	0	-0.227596	-0.215897	-0.0784248	1.37099	1.5708	0	0
22.29	-0.157223	1.24063	-1.36532	0.741196	-0.498163	0.96897	-0.352967	0.0213042	-0.0666813	0.0490597	-0.538687	0	0	-0.286861	-0.104862	-0.0897157	0.174731	-0.471262	0	0	-1.06345	0.254383	0.131777	-0.524734	-0.395042	-0.262171	1.90826	1.5708	0	0	-0.224019	-0.217129	-0.0762271	1.37535	1.5708	0	0
22.3	-0.149957	1.23776	-1.37434	0.741555	-0.498616	0.96921	-0.357236	0.0178488	-0.0695817	0.0484043	-0.539544	0	0	-0.293056	-0.101171	-0.0940348	0.171445	-0.472981	0	0	-1.06709	0.252906	0.132881	-0.522908	-0.397478	-0.266654	1.91583	1.5708	0	0	-0.221104	-0.217593	-0.0741959	1.38005	1.5708	0	0
22.31	-0.156795	1.23919	-1.36786	0.740807	-0.498538	0.969087	-0.354317	0.021518	-0.0662621	0.0494927	-0.539606	0	0	-0.289037	-0.104905	-0.0945383	0.175964	-0.472162	0	0	-1.06737	0.253202	0.136332	-0.518839	-0.397073	-0.268732	1.92041	1.5708	0	0	-0.217434	-0.219724	-0.0731406	1.38545	1.5708	0	0
22.32	-0.157692	1.24075	-1.36716	0.740776	-0.498672	0.968981	-0.352017	0.0214666	-0.0663905	0.050588	-0.539754	0	0	-0.287842	-0.105359	-0.0949135	0.174923	-0.471572	0	0	-1.06646	0.25359	0.137415	-0.514255	-0.398331	-0.270937	1.92473	1.5708	0	0	-0.213692	-0.219931	-0.0724055	1.38889	1.5708	0	0
22.33	-0.159554	1.24263	-1.36541	0.740728	-0.498764	0.968855	-0.349258	0.0216918	-0.0662066	0.0518548	-0.53942	0	0	-0.285519	-0.106137	-0.0950163	0.175333	-0.472705	0	0	-1.06509	0.254112	0.138503	-0.509018	-0.399338	-0.272857	1.92786	1.5708	0	0	-0.209679	-0.219861	-0.0721288	1.39214	1.5708	0	0
22.34	-0.161566	1.24476	-1.36362	0.740608	-0.498841	0.968737	-0.346256	0.0218919	-0.0654442	0.0530444	-0.538545	0	0	-0.282607	-0.106611	-0.0962458	0.176122	-0.474341	0	0	-1.06334	0.254321	0.139481	-0.503216	-0.400191	-0.274612	1.93019	1.56984	0	0	-0.205409	-0.219666	-0.072149	1.39496	1.5708	0	0
22.35	-0.164844	1.2464	-1.36107	0.740376	-0.499036	0.968586	-0.343941	0.0226919	-0.0646811	0.0538962	-0.537515	0	0	-0.278432	-0.109581	-0.107598	0.184153	-0.473789	0	0	-1.06163	0.254161	0.140872	-0.497225	-0.401177	-0.275938	1.93195	1.56914	0	0	-0.201346	-0.219214	-0.0725774	1.39767	1.5708	0	0
22.36	-0.166607	1.24834	-1.35981	0.740153	-0.499146	0.96847	-0.341292	0.0230195	-0.0640945	0.0547474	-0.536953	0	0	-0.275184	-0.110038	-0.110677	0.18678	-0.472642	0	0	-1.06001	0.253643	0.141809	-0.490797	-0.401735	-0.277474	1.93355	1.56896	0	0	-0.197077	-0.218717	-0.073328	1.40088	1.5708	0	0
22.37	-0.166865	1.2507	-1.35966	0.739979	-0.499169	0.968421	-0.338318	0.0228054	-0.0638139	0.0555723	-0.536282	0	0	-0.274201	-0.107655	-0.102457	0.180003	-0.475729	0	0	-1.05839	0.252963	0.142085	-0.483834	-0.402011	-0.278964	1.93495	1.56961	0	0	-0.19262	-0.217788	-0.0747424	1.40451	1.5708	0	0
22.38	-0.167497	1.25102	-1.35932	0.739779	-0.499316	0.968477	-0.338667	0.0230277	-0.0640308	0.0547918	-0.535716	0	0	-0.274864	-0.107693	-0.101611	0.177941	-0.478444	0	0	-1.05855	0.25227	0.142749	-0.476979	-0.402274	-0.280468	1.93665	1.57055	0	0	-0.188693	-0.217017	-0.0761844	1.40905	1.5708	0	0
22.39	-0.167512	1.25039	-1.35959	0.739622	-0.499509	0.9686	-0.340952	0.0229212	-0.0643724	0.0530737	-0.53526	0	0	-0.277381	-0.10757	-0.100631	0.175255	-0.479647	0	0	-1.05965	0.251542	0.143571	-0.470268	-0.4024	-0.282014	1.93817	1.5708	0	0	-0.18476	-0.216265	-0.0773721	1.41383	1.5708	0	0
22.4	-0.167937	1.24993	-1.35956	0.739377	-0.499687	0.968687	-0.342748	0.0233955	-0.063518	0.050937	-0.53557	0	0	-0.278607	-0.107716	-0.0981286	0.173856	-0.479917	0	0	-1.06048	0.25063	0.14474	-0.463141	-0.402258	-0.283627	1.93956	1.57007	0	0	-0.180327	-0.215779	-0.0780801	1.41809	1.5708	0	0
22.41	-0.167692	1.24925	-1.36015	0.73911	-0.499874	0.968777	-0.344676	0.0239636	-0.0624737	0.0485109	-0.536545	0	0	-0.281116	-0.107637	-0.0954331	0.171119	-0.478775	0	0	-1.06129	0.249525	0.145784	-0.456011	-0.402178	-0.285529	1.94136	1.569	0	0	-0.175491	-0.215292	-0.0787937	1.42202	1.5708	0	0
